<svg width="998" height="145" viewBox="0 0 998 145" fill="none" xmlns="http://www.w3.org/2000/svg">
<path fill-rule="evenodd" clip-rule="evenodd" d="M54.3217 2.70427C15.862 13.0095 -7.08461 52.7543 3.22061 91.2139C13.5854 129.896 53.2706 152.62 91.7302 142.315C130.19 132.01 153.196 92.4873 142.831 53.8053C132.526 15.3457 92.7813 -7.60095 54.3217 2.70427ZM60.5167 25.8245C86.3047 18.9146 113.023 34.1529 119.933 59.9408C126.903 85.9511 111.383 112.507 85.5947 119.417L73.0259 72.5096L60.5167 25.8245ZM912.851 3.63293H883.332V141.386H912.851V84.5139H967.558V141.386H997.077V3.63293H967.558V58.9311H912.851V3.63293ZM789.66 96.5181C790.185 103.34 792.94 108.85 797.925 113.048C803.042 117.115 809.798 119.149 818.194 119.149C825.148 119.149 830.789 117.706 835.118 114.82C839.579 111.802 841.809 107.67 841.809 102.422C841.809 98.7484 840.563 95.8621 838.07 93.763C835.709 91.5327 832.298 89.8272 827.837 88.6465C823.508 87.3345 816.751 85.7602 807.568 83.9235C798.515 82.218 790.906 80.0532 784.74 77.4294C778.574 74.6743 773.523 70.6729 769.587 65.4252C765.782 60.0462 763.88 52.9618 763.88 44.1718C763.88 36.169 766.045 29.0189 770.374 22.7216C774.835 16.4243 780.935 11.5046 788.676 7.96232C796.547 4.2889 805.403 2.45219 815.242 2.45219C825.344 2.45219 834.397 4.3545 842.4 8.15911C850.534 11.8325 856.896 16.9491 861.488 23.5088C866.211 30.0685 868.638 37.4809 868.769 45.7461H839.841C839.185 39.8424 836.693 35.1194 832.363 31.5772C828.034 27.9038 822.327 26.0671 815.242 26.0671C808.683 26.0671 803.435 27.4446 799.499 30.1997C795.563 32.9547 793.596 36.8905 793.596 42.0071C793.596 45.6805 794.776 48.5668 797.138 50.6659C799.499 52.6338 802.845 54.2737 807.174 55.5856C811.503 56.7664 818.194 58.2095 827.247 59.915C836.43 61.6205 844.171 63.7852 850.468 66.4091C856.765 68.9018 861.816 72.772 865.621 78.0198C869.557 83.1363 871.525 90.024 871.525 98.6828C871.525 107.079 869.229 114.623 864.637 121.314C860.045 127.873 853.617 133.055 845.351 136.86C837.217 140.665 828.034 142.567 817.801 142.567C806.781 142.567 796.941 140.599 788.282 136.663C779.755 132.596 773.064 127.021 768.21 119.936C763.355 112.852 760.863 104.914 760.732 96.1245L789.66 96.5181ZM679.092 3.63293L628.714 141.386H659.216L669.843 111.277H722.189L732.816 141.386H764.499L714.515 3.63293H679.092ZM714.121 87.4657H677.715L695.819 35.1194L714.121 87.4657ZM506.948 72.5096C506.948 58.4719 509.638 46.2053 515.017 35.7098C520.527 25.0831 528.333 16.8835 538.435 11.111C548.668 5.33845 560.672 2.45219 574.448 2.45219C585.205 2.45219 594.848 4.55129 603.376 8.74949C611.903 12.9477 618.791 18.8514 624.039 26.4606C629.286 34.0699 632.435 42.8598 633.485 52.8306H603.966C602.261 44.9589 598.653 38.7928 593.143 34.3322C587.764 29.7405 581.007 27.4446 572.873 27.4446C561.853 27.4446 553.128 31.5772 546.7 39.8424C540.272 48.1076 537.057 58.9967 537.057 72.5096C537.057 85.8914 540.272 96.7804 546.7 105.177C553.128 113.442 561.853 117.575 572.873 117.575C581.007 117.575 587.764 115.344 593.143 110.884C598.653 106.292 602.261 100.06 603.966 92.1887H633.485C632.435 102.159 629.286 110.949 624.039 118.559C618.791 126.168 611.903 132.072 603.376 136.27C594.848 140.468 585.205 142.567 574.448 142.567C560.672 142.567 548.668 139.681 538.435 133.908C528.333 128.136 520.527 120.002 515.017 109.506C509.638 98.8795 506.948 86.5473 506.948 72.5096ZM380.57 3.63293V141.386H409.499V54.6017L467.945 141.386H494.906V3.63293H465.781V90.4176L407.334 3.63293H380.57ZM274.05 3.63293H366.541V29.0189H303.568V59.915H354.734V84.1203H303.568V116H368.706V141.386H274.05V3.63293ZM239.598 9.33987C232.12 5.53524 223.461 3.63293 213.622 3.63293H157.536V141.386H187.055V95.1405H213.622C223.461 95.1405 232.12 93.3038 239.598 89.6304C247.207 85.8258 253.045 80.5124 257.112 73.6904C261.31 66.7371 263.41 58.6687 263.41 49.4851C263.41 40.3016 261.31 32.2332 257.112 25.2799C253.045 18.3266 247.207 13.0133 239.598 9.33987ZM210.866 70.5417H187.055V28.2317H210.866C217.82 28.2317 223.33 30.1341 227.397 33.9387C231.464 37.7433 233.497 42.9254 233.497 49.4851C233.497 55.9136 231.464 61.0302 227.397 64.8348C223.33 68.6394 217.82 70.5417 210.866 70.5417Z" fill="black"/>
</svg>
