<svg width="942" height="141" viewBox="0 0 942 141" fill="none" xmlns="http://www.w3.org/2000/svg">
<path d="M73.2784 1.40576C87.2754 1.40576 99.8316 4.35612 110.947 10.2568C122.062 16.0203 130.776 24.1166 137.088 34.5457C143.401 44.9749 146.557 56.8449 146.557 70.1558C146.557 83.4666 143.401 95.3366 137.088 105.766C130.776 116.195 122.062 124.36 110.947 130.261C99.8316 136.024 87.2755 138.906 73.2784 138.906C59.2814 138.906 46.7253 136.024 35.61 130.261C24.4948 124.36 15.7809 116.195 9.46856 105.766C3.15619 95.3367 -2.42332e-06 83.4667 -3.00516e-06 70.1558C-3.58699e-06 56.8449 3.15618 44.9749 9.46856 34.5457C15.7809 24.1166 24.4948 16.0203 35.61 10.2568C46.7253 4.35612 59.2814 1.40577 73.2784 1.40576ZM73.2784 120.586C84.2565 120.586 94.0681 118.459 102.713 114.205C111.221 109.951 117.945 104.05 122.885 96.5031C127.688 88.8184 130.09 80.036 130.09 70.1558C130.09 60.2755 127.688 51.5617 122.885 44.0143C117.945 36.3297 111.221 30.3604 102.713 26.1064C94.0681 21.8524 84.2565 19.7254 73.2784 19.7254C73.2784 30.9451 73.2784 26.1064 73.2784 26.1064C73.2784 34.5457 73.2784 34.5457 73.2784 44.0143C73.2784 52.0698 73.2784 60.2755 73.2784 70.1558C73.2784 80.036 73.2784 86.8682 73.2784 96.5031C73.2784 106.138 73.2784 105.766 73.2784 114.205C73.2784 120.586 73.2784 117.954 73.2784 120.586Z" fill="black"/>
<path d="M835.869 1.18073H852.989V61.2018H924.228V1.18073H941.348V139.131H924.228V76.9451H852.989V139.131H835.869V1.18073Z" fill="black"/>
<path d="M737.981 94.0659C738.637 103.381 742.376 110.859 749.198 116.5C756.02 122.01 764.679 124.765 775.174 124.765C784.62 124.765 792.229 122.732 798.002 118.665C803.905 114.466 806.857 108.694 806.857 101.347C806.857 95.9682 805.217 91.7044 801.938 88.5557C798.789 85.4071 794.656 83.1112 789.54 81.6681C784.554 80.0937 777.732 78.585 769.074 77.1419C755.298 74.7804 744.344 70.9102 736.21 65.5312C728.076 60.1523 724.008 51.4279 724.008 39.3581C724.008 31.6177 725.976 24.7956 729.912 18.8919C733.848 12.857 739.358 8.1996 746.443 4.91976C753.658 1.63992 761.858 0 771.041 0C780.75 0 789.343 1.77111 796.821 5.31334C804.299 8.85557 810.203 13.8409 814.532 20.2694C818.862 26.5667 821.289 33.848 821.813 42.1132H804.889C803.84 34.1104 800.232 27.6819 794.066 22.8277C787.9 17.9735 780.225 15.5465 771.041 15.5465C761.858 15.5465 754.577 17.58 749.198 21.647C743.819 25.5828 741.129 31.1585 741.129 38.3741C741.129 43.6219 742.704 47.7545 745.852 50.7719C749.001 53.6582 753.068 55.8885 758.053 57.4628C763.039 58.906 769.861 60.3491 778.519 61.7922C792.295 64.1537 803.315 68.0895 811.58 73.5997C819.845 78.9786 823.978 87.703 823.978 99.7728C823.978 107.644 821.879 114.663 817.681 120.829C813.614 126.995 807.841 131.784 800.363 135.195C793.016 138.606 784.554 140.312 774.977 140.312C764.219 140.312 754.839 138.409 746.836 134.605C738.833 130.669 732.602 125.224 728.141 118.271C723.812 111.187 721.45 103.118 721.057 94.0659H737.981Z" fill="black"/>
<path d="M600.264 139.131L652.807 1.3775H673.077L725.423 139.131H707.121L692.559 101.937H632.538L617.975 139.131H600.264ZM637.654 86.391H687.442L662.45 20.0726L637.654 86.391Z" fill="black"/>
<path d="M481.487 70.2542C481.487 56.4789 484.177 44.2779 489.556 33.6512C494.935 23.0245 502.609 14.8249 512.58 9.05236C522.551 3.14864 534.096 0.196777 547.215 0.196777C562.434 0.196777 575.16 4.32938 585.393 12.5946C595.757 20.8598 602.251 32.1424 604.875 46.4426H587.754C585.262 36.8654 580.342 29.3874 572.995 24.0084C565.779 18.6295 556.924 15.94 546.428 15.94C536.982 15.94 528.651 18.2359 521.436 22.8277C514.22 27.4195 508.644 33.848 504.709 42.1132C500.904 50.2472 499.002 59.6275 499.002 70.2542C499.002 80.7497 500.904 90.13 504.709 98.3952C508.644 106.66 514.22 113.089 521.436 117.681C528.651 122.273 536.982 124.568 546.428 124.568C557.055 124.568 565.91 121.945 572.995 116.697C580.079 111.318 584.934 103.774 587.557 94.0659H604.678C602.054 108.366 595.626 119.649 585.393 127.914C575.291 136.179 562.565 140.312 547.215 140.312C534.096 140.312 522.551 137.425 512.58 131.653C502.609 125.749 494.935 117.55 489.556 107.054C484.177 96.4273 481.487 84.1607 481.487 70.2542Z" fill="black"/>
<path d="M363.264 139.131V1.3775H379.007L453 107.644V1.3775H469.727V139.131H453.984L379.991 32.864V139.131H363.264Z" fill="black"/>
<path d="M263.562 1.3775H351.33V17.1208H280.683V61.2018H339.523V76.9451H280.683V123.388H353.889V139.131H263.562V1.3775Z" fill="black"/>
<path d="M209.494 1.3775C218.546 1.3775 226.549 3.14861 233.502 6.69085C240.455 10.1019 245.769 15.0217 249.442 21.4501C253.247 27.7474 255.149 35.1599 255.149 43.6875C255.149 52.2151 253.247 59.6931 249.442 66.1216C245.637 72.5501 240.258 77.5354 233.305 81.0777C226.483 84.4887 218.546 86.1942 209.494 86.1942H173.678V139.131H156.557V1.3775H209.494ZM173.678 70.451H207.919C216.972 70.451 224.187 68.0239 229.566 63.1697C234.945 58.3156 237.635 51.8215 237.635 43.6875C237.635 35.5535 234.945 29.125 229.566 24.402C224.318 19.5478 217.168 17.1208 208.116 17.1208H173.678V70.451Z" fill="black"/>
</svg>
