<svg width="145" height="145" viewBox="0 0 145 145" fill="none" xmlns="http://www.w3.org/2000/svg">
<path d="M-3.15893e-06 72.2678C-4.89935e-06 32.4515 32.4515 4.43579e-05 72.2678 4.26174e-05C112.084 4.0877e-05 144.536 32.4515 144.536 72.2678C144.536 112.314 112.084 144.536 72.2678 144.536C32.4515 144.536 -1.40844e-06 112.314 -3.15893e-06 72.2678ZM120.83 72.2678C120.83 45.5702 98.9654 23.9359 72.2678 23.9359C72.2678 62.6168 72.2678 45.5702 72.2678 72.2678C72.2678 99.1956 72.2678 89.7824 72.2678 120.83C98.9655 120.83 120.83 99.1956 120.83 72.2678Z" fill="black"/>
</svg>
