<svg width="447" height="66" viewBox="0 0 447 66" fill="none" xmlns="http://www.w3.org/2000/svg">
<path fill-rule="evenodd" clip-rule="evenodd" d="M16.6903 4.69644C1.23777 13.618 -4.08519 33.4835 4.83634 48.9361C13.8094 64.4779 33.6234 69.7115 49.0759 60.79C64.5285 51.8685 69.903 32.0923 60.9299 16.5504C52.0084 1.09788 32.1428 -4.22508 16.6903 4.69644ZM22.0535 13.9858C32.4148 8.00376 45.7478 11.5008 51.7298 21.8621C57.7635 32.3126 54.1255 45.6079 43.7643 51.59L32.8831 32.7432L22.0535 13.9858ZM408.435 1.87717H395.207V63.6091H408.435V38.1226H432.951V63.6091H446.179V1.87717H432.951V26.6581H408.435V1.87717ZM353.229 43.5022C353.464 46.5594 354.699 49.0287 356.933 50.91C359.226 52.7326 362.253 53.6438 366.016 53.6438C369.132 53.6438 371.66 52.9971 373.6 51.7037C375.599 50.3515 376.599 48.4995 376.599 46.1478C376.599 44.5016 376.04 43.2082 374.923 42.2675C373.865 41.2681 372.336 40.5038 370.337 39.9746C368.397 39.3867 365.369 38.6812 361.254 37.8581C357.197 37.0938 353.787 36.1237 351.024 34.9479C348.261 33.7132 345.997 31.9201 344.234 29.5684C342.529 27.1579 341.676 23.9831 341.676 20.044C341.676 16.4577 342.646 13.2535 344.586 10.4315C346.585 7.60946 349.319 5.40475 352.788 3.81736C356.315 2.17117 360.284 1.34808 364.693 1.34808C369.22 1.34808 373.277 2.20057 376.863 3.90554C380.508 5.55173 383.36 7.84463 385.418 10.7842C387.534 13.7239 388.622 17.0456 388.681 20.7495H375.717C375.423 18.1039 374.306 15.9874 372.366 14.4C370.426 12.7538 367.868 11.9307 364.693 11.9307C361.754 11.9307 359.402 12.548 357.638 13.7827C355.874 15.0173 354.993 16.7811 354.993 19.074C354.993 20.7201 355.522 22.0136 356.58 22.9543C357.638 23.8361 359.137 24.571 361.078 25.159C363.018 25.6881 366.016 26.3348 370.073 27.0991C374.188 27.8634 377.657 28.8335 380.479 30.0093C383.301 31.1264 385.565 32.8608 387.27 35.2125C389.033 37.5054 389.915 40.592 389.915 44.4722C389.915 48.235 388.886 51.6155 386.829 54.6139C384.771 57.5535 381.89 59.8758 378.186 61.5808C374.541 63.2858 370.426 64.1383 365.84 64.1383C360.901 64.1383 356.492 63.2564 352.611 61.4926C348.79 59.6701 345.792 57.1714 343.616 53.9966C341.441 50.8218 340.324 47.2649 340.265 43.3258L353.229 43.5022ZM303.68 1.87717L281.104 63.6091H294.773L299.535 50.1163H322.993L327.755 63.6091H341.954L319.554 1.87717H303.68ZM319.378 39.4455H303.063L311.176 15.9873L319.378 39.4455ZM226.536 32.7432C226.536 26.4524 227.742 20.9553 230.152 16.2519C232.621 11.4898 236.119 7.81523 240.646 5.22837C245.232 2.64151 250.612 1.34808 256.785 1.34808C261.606 1.34808 265.927 2.28876 269.749 4.17011C273.57 6.05146 276.657 8.69712 279.008 12.1071C281.36 15.517 282.771 19.4561 283.241 23.9243H270.013C269.249 20.3968 267.632 17.6335 265.163 15.6346C262.752 13.5769 259.725 12.548 256.079 12.548C251.141 12.548 247.231 14.4 244.35 18.1039C241.47 21.8078 240.029 26.6876 240.029 32.7432C240.029 38.74 241.47 43.6198 244.35 47.3825C247.231 51.0864 251.141 52.9383 256.079 52.9383C259.725 52.9383 262.752 51.9389 265.163 49.9399C267.632 47.8822 269.249 45.0896 270.013 41.562H283.241C282.771 46.0302 281.36 49.9693 279.008 53.3793C276.657 56.7892 273.57 59.4349 269.749 61.3162C265.927 63.1976 261.606 64.1383 256.785 64.1383C250.612 64.1383 245.232 62.8448 240.646 60.258C236.119 57.6711 232.621 54.026 230.152 49.3226C227.742 44.5604 226.536 39.034 226.536 32.7432ZM169.902 1.87717V63.6091H182.866V24.718L209.058 63.6091H221.14V1.87717H208.088V40.7683L181.896 1.87717H169.902ZM122.167 1.87717H163.615V13.2535H135.395V27.0991H158.324V37.9463H135.395V52.2328H164.585V63.6091H122.167V1.87717ZM106.727 4.43464C103.376 2.72966 99.496 1.87717 95.0866 1.87717H69.9529V63.6091H83.1812V42.8848H95.0866C99.496 42.8848 103.376 42.0617 106.727 40.4155C110.137 38.7106 112.754 36.3295 114.576 33.2723C116.458 30.1563 117.398 26.5406 117.398 22.4251C117.398 18.3096 116.458 14.6939 114.576 11.5779C112.754 8.46192 110.137 6.08083 106.727 4.43464ZM93.852 31.8613H83.1812V12.9007H93.852C96.968 12.9007 99.4372 13.7532 101.26 15.4582C103.082 17.1632 103.994 19.4855 103.994 22.4251C103.994 25.3059 103.082 27.5988 101.26 29.3038C99.4372 31.0088 96.968 31.8613 93.852 31.8613Z" fill="black"/>
</svg>
