<svg width="993" height="145" viewBox="0 0 993 145" fill="none" xmlns="http://www.w3.org/2000/svg">
<path d="M-3.15893e-06 72.2678C-4.89935e-06 32.4515 32.4515 4.43579e-05 72.2678 4.26174e-05C112.084 4.0877e-05 144.536 32.4515 144.536 72.2678C144.536 112.314 112.084 144.536 72.2678 144.536C32.4515 144.536 -1.40844e-06 112.314 -3.15893e-06 72.2678ZM120.83 72.2678C120.83 45.5702 98.9654 23.9359 72.2678 23.9359C72.2678 62.6168 72.2678 45.5702 72.2678 72.2678C72.2678 99.1956 72.2678 89.7824 72.2678 120.83C98.9655 120.83 120.83 99.1956 120.83 72.2678Z" fill="black"/>
<path d="M878.331 3.39111H907.85V58.6893H962.557V3.39111H992.076V141.144H962.557V84.272H907.85V141.144H878.331V3.39111Z" fill="black"/>
<path d="M784.659 96.2762C785.183 103.098 787.939 108.608 792.924 112.807C798.04 116.874 804.797 118.907 813.193 118.907C820.147 118.907 825.788 117.464 830.117 114.578C834.578 111.56 836.808 107.428 836.808 102.18C836.808 98.5065 835.562 95.6202 833.069 93.5211C830.708 91.2908 827.297 89.5853 822.836 88.4046C818.507 87.0926 811.75 85.5183 802.567 83.6816C793.514 81.9761 785.905 79.8114 779.739 77.1875C773.573 74.4324 768.522 70.431 764.586 65.1833C760.781 59.8044 758.879 52.7199 758.879 43.9299C758.879 35.9271 761.044 28.7771 765.373 22.4797C769.834 16.1825 775.934 11.2627 783.675 7.72046C791.546 4.04704 800.402 2.21033 810.241 2.21033C820.343 2.21033 829.396 4.11264 837.399 7.91725C845.533 11.5907 851.895 16.7072 856.487 23.2669C861.21 29.8266 863.637 37.239 863.768 45.5042H834.84C834.184 39.6005 831.692 34.8776 827.362 31.3353C823.033 27.6619 817.326 25.8252 810.241 25.8252C803.682 25.8252 798.434 27.2027 794.498 29.9578C790.562 32.7129 788.594 36.6487 788.594 41.7652C788.594 45.4386 789.775 48.3249 792.137 50.424C794.498 52.3919 797.844 54.0318 802.173 55.3438C806.502 56.5245 813.193 57.9676 822.246 59.6732C831.429 61.3787 839.17 63.5434 845.467 66.1672C851.764 68.6599 856.815 72.5301 860.62 77.7779C864.556 82.8944 866.523 89.7821 866.523 98.4409C866.523 106.837 864.228 114.381 859.636 121.072C855.044 127.631 848.616 132.814 840.35 136.618C832.216 140.423 823.033 142.325 812.8 142.325C801.779 142.325 791.94 140.357 783.281 136.421C774.754 132.354 768.063 126.779 763.208 119.694C758.354 112.61 755.862 104.673 755.73 95.8826L784.659 96.2762Z" fill="black"/>
<path d="M623.713 141.144L674.091 3.39111H709.514L759.498 141.144H727.815L717.188 111.036H664.842L654.215 141.144H623.713ZM672.714 87.2239H709.12L690.818 34.8776L672.714 87.2239Z" fill="black"/>
<path d="M501.947 72.2678C501.947 58.23 504.637 45.9634 510.016 35.4679C515.526 24.8412 523.332 16.6416 533.434 10.8691C543.667 5.09659 555.671 2.21033 569.446 2.21033C580.204 2.21033 589.847 4.30943 598.375 8.50763C606.902 12.7058 613.79 18.6095 619.038 26.2188C624.285 33.828 627.434 42.618 628.484 52.5887H598.965C597.259 44.7171 593.652 38.551 588.142 34.0904C582.763 29.4986 576.006 27.2027 567.872 27.2027C556.852 27.2027 548.127 31.3353 541.699 39.6005C535.27 47.8657 532.056 58.7548 532.056 72.2678C532.056 85.6495 535.27 96.5386 541.699 104.935C548.127 113.2 556.852 117.333 567.872 117.333C576.006 117.333 582.763 115.102 588.142 110.642C593.652 106.05 597.259 99.8184 598.965 91.9468H628.484C627.434 101.918 624.285 110.708 619.038 118.317C613.79 125.926 606.902 131.83 598.375 136.028C589.847 140.226 580.204 142.325 569.446 142.325C555.671 142.325 543.667 139.439 533.434 133.666C523.332 127.894 515.526 119.76 510.016 109.264C504.637 98.6377 501.947 86.3055 501.947 72.2678Z" fill="black"/>
<path d="M375.569 141.144V3.39111H402.333L460.78 90.1757V3.39111H489.905V141.144H462.944L404.498 54.3599V141.144H375.569Z" fill="black"/>
<path d="M269.049 3.39111H361.54V28.7771H298.567V59.6732H349.733V83.8784H298.567V115.759H363.705V141.144H269.049V3.39111Z" fill="black"/>
<path d="M208.62 3.39111C218.46 3.39111 227.119 5.29343 234.597 9.09805C242.206 12.7715 248.044 18.0848 252.111 25.0381C256.309 31.9913 258.408 40.0598 258.408 49.2433C258.408 58.4269 256.309 66.4953 252.111 73.4485C248.044 80.2706 242.206 85.584 234.597 89.3886C227.119 93.062 218.46 94.8987 208.62 94.8987H182.054V141.144H152.535V3.39111H208.62ZM182.054 70.2999H205.865C212.819 70.2999 218.329 68.3976 222.396 64.593C226.463 60.7884 228.496 55.6718 228.496 49.2433C228.496 42.6836 226.463 37.5015 222.396 33.6969C218.329 29.8922 212.819 27.9899 205.865 27.9899H182.054V70.2999Z" fill="black"/>
</svg>
