<svg width="147" height="138" viewBox="0 0 147 138" fill="none" xmlns="http://www.w3.org/2000/svg">
<path d="M73.2784 2.93463e-06C87.2754 2.3228e-06 99.8316 2.95036 110.947 8.85105C122.062 14.6145 130.776 22.7108 137.088 33.14C143.401 43.5691 146.557 55.4391 146.557 68.75C146.557 82.0609 143.401 93.9309 137.088 104.36C130.776 114.789 122.062 122.954 110.947 128.855C99.8316 134.618 87.2755 137.5 73.2784 137.5C59.2814 137.5 46.7253 134.618 35.61 128.855C24.4948 122.954 15.7809 114.789 9.46856 104.36C3.15619 93.9309 -2.42332e-06 82.0609 -3.00516e-06 68.75C-3.58699e-06 55.4391 3.15618 43.5691 9.46856 33.14C15.7809 22.7108 24.4948 14.6145 35.61 8.85106C46.7253 2.95036 59.2814 3.54646e-06 73.2784 2.93463e-06ZM73.2784 119.18C84.2565 119.18 94.0681 117.053 102.713 112.799C111.221 108.545 117.945 102.645 122.885 95.0973C127.688 87.4127 130.09 78.6302 130.09 68.75C130.09 58.8698 127.688 50.1559 122.885 42.6085C117.945 34.9239 111.221 28.9546 102.713 24.7006C94.0681 20.4466 84.2565 18.3196 73.2784 18.3196C73.2784 29.5393 73.2784 24.7006 73.2784 24.7006C73.2784 33.14 73.2784 33.14 73.2784 42.6085C73.2784 50.664 73.2784 58.8698 73.2784 68.75C73.2784 78.6302 73.2784 85.4625 73.2784 95.0973C73.2784 104.732 73.2784 104.36 73.2784 112.799C73.2784 119.18 73.2784 116.548 73.2784 119.18Z" fill="black"/>
</svg>
